# xmcd CD database file
#
# Track frame offsets:
#	150
#	21935
#	43042
#	60046
#	74682
#	89813
#	109362
#	124603
#	142393
#	160483
#
# Disc length: 2402 seconds
#
# Revision: 0
# Processed by: cddbd v1.5.2PL0 Copyright (c) Steve Scherf et al.
# Submitted via: CDex 1.79
#
DISCID=9809600a
DTITLE=Jutta Hipp - at the hickory house -- CD2
DYEAR=1956
DGENRE=Jazz
TTITLE0=gone with the wind
TTITLE1=after hours
TTITLE2=the squirrel
TTITLE3=we'll be together again
TTITLE4=Horacio
TTITLE5=I married an angel
TTITLE6=moonlight in Vermont
TTITLE7=star eyes
TTITLE8=if I had you
TTITLE9=my heart stood still
EXTD=YEAR: 1956
EXTT0=
EXTT1=
EXTT2=
EXTT3=
EXTT4=
EXTT5=
EXTT6=
EXTT7=
EXTT8=
EXTT9=
PLAYORDER=
